<svg height="512pt" viewBox="0 -43 512.0002 512" width="512pt" xmlns="http://www.w3.org/2000/svg"><path d="m254.949219 127.894531c5 2.328125 10.949219.167969 13.289062-4.839843 2.328125-5 .167969-10.949219-4.839843-13.285157-5-2.332031-10.945313-.171875-13.285157 4.835938-2.332031 5-.171875 10.949219 4.835938 13.289062zm0 0"/><path d="m511.398438 162.449219c-.90625-2.492188-2.769532-4.523438-5.171876-5.644531l-326.214843-152.097657c-25.03125-11.679687-54.753907-.878906-66.425781 24.167969-1.796876 3.851562-30.976563 66.425781-33.804688 72.488281-11.675781 25.039063-.875 54.761719 24.183594 66.4375l87 40.570313v57.335937h-130.976563v-9.996093c0-16.539063-13.457031-29.996094-29.992187-29.996094h-19.996094c-5.523438 0-10 4.476562-10 10v179.964844c0 5.519531 4.476562 9.996093 10 9.996093h19.996094c16.535156 0 29.992187-13.453125 29.992187-29.992187v-17.613282s166.5-29.464843 166.539063-29.472656c14.152344-2.679687 24.425781-15.078125 24.425781-29.480468v-18.777344c12.191406-7.050782 19.996094-20.195313 19.996094-34.632813v-20.035156l76.050781 35.46875c14.660156 6.824219 32.140625.753906 39.429688-13.679687l34.0625 15.886718c4.984374 2.324219 10.945312.1875 13.285156-4.835937l29.980468-64.28125 27.4375-9.011719c2.621094-.859375 4.773438-2.769531 5.941407-5.269531l13.925781-29.855469c1.121094-2.402344 1.242188-5.152344.335938-7.644531zm-471.40625 233.234375c0 5.511718-4.484376 9.996094-9.996094 9.996094h-10v-159.96875h10c5.511718 0 9.996094 4.484374 9.996094 10zm190.964843-76.566406c0 4.785156-3.40625 8.910156-8.101562 9.824218l-162.867188 28.824219v-72.0625h136.335938c7.050781 12.195313 20.195312 19.996094 34.632812 19.996094zm19.996094-53.410157c0 10.921875-8.847656 19.996094-19.996094 19.996094-10.921875 0-19.996093-8.847656-19.996093-19.996094v-48.011719l39.992187 18.652344zm104.496094-2.691406-243.039063-113.339844c-15.027344-7-21.519531-24.828125-14.503906-39.863281l4.222656-9.054688 279.289063 130.234376-12.679688 27.179687c-2.332031 4.996094-8.296875 7.167969-13.289062 4.84375zm64.433593-2.015625-24.96875-11.644531 6.894532-14.785157 35.894531-11.785156zm60.960938-73.425781c-.398438.128906-85.015625 27.914062-85.214844 27.980469l-285.050781-132.917969 21.132813-45.308594c6.996093-15.015625 24.820312-21.511719 39.851562-14.5l317.152344 147.875zm0 0"/><path d="m159.496094 72.347656c-2.335938 5.003906-.167969 10.953125 4.835937 13.289063l54.367188 25.355469c4.988281 2.324218 10.945312.183593 13.289062-4.835938 2.332031-5.003906.167969-10.953125-4.835937-13.289062l-54.371094-25.351563c-5.003906-2.339844-10.953125-.171875-13.285156 4.832031zm0 0"/></svg>