<?xml version="1.0" encoding="iso-8859-1"?>
<!-- Generator: Adobe Illustrator 19.0.0, SVG Export Plug-In . SVG Version: 6.00 Build 0)  -->
<svg version="1.1" id="Capa_1" xmlns="http://www.w3.org/2000/svg" xmlns:xlink="http://www.w3.org/1999/xlink" x="0px" y="0px"
	 viewBox="0 0 352.063 352.063" style="enable-background:new 0 0 352.063 352.063;" xml:space="preserve">
<g>
	<g>
		<circle cx="176.031" cy="283.031" r="22"/>
	</g>
</g>
<g>
	<g>
		<path d="M254.031,242.231c-16.8-27.2-46-43.6-78-43.6s-61.2,16.4-78,43.6c-2.4,4-1.2,9.2,2.8,11.6c1.2,0.8,2.8,1.2,4.4,1.2
			c2.8,0,5.6-1.6,7.2-4c13.6-22.4,37.6-35.6,63.6-35.6c26,0.4,50,13.6,63.6,35.6c2.4,4,7.6,5.2,11.6,2.8
			C255.231,251.431,256.431,246.231,254.031,242.231z"/>
	</g>
</g>
<g>
	<g>
		<path d="M305.231,194.231c-28-45.2-76.4-72-129.2-72s-101.2,26.8-129.2,72c-2.4,4-1.2,9.2,2.8,11.6c1.2,0.8,2.8,1.2,4.4,1.2
			c2.8,0,5.6-1.6,7.2-4c24.8-40,68-64,114.8-64c47.2,0,90,24,114.8,64c2.4,4,7.6,5.2,11.6,2.8S307.631,198.231,305.231,194.231z"/>
	</g>
</g>
<g>
	<g>
		<path d="M350.831,144.231c-38-60.8-103.2-97.2-174.8-97.2s-136.8,36.4-174.8,97.2c-2.4,4-1.2,9.2,2.8,11.6
			c1.2,0.8,2.8,1.2,4.4,1.2c2.8,0,5.6-1.6,7.2-4c34.8-55.6,94.8-88.8,160.4-88.8s125.6,33.2,160.4,89.2c2.4,4,7.6,5.2,11.6,2.8
			C352.031,153.431,353.231,148.231,350.831,144.231z"/>
	</g>
</g>
<g>
</g>
<g>
</g>
<g>
</g>
<g>
</g>
<g>
</g>
<g>
</g>
<g>
</g>
<g>
</g>
<g>
</g>
<g>
</g>
<g>
</g>
<g>
</g>
<g>
</g>
<g>
</g>
<g>
</g>
</svg>
