<svg xmlns="http://www.w3.org/2000/svg" viewBox="0 0 358.49 79.28"><defs><style>.cls-1{fill:#003670;}.cls-2{fill:none;stroke:#ff6900;stroke-miterlimit:10;stroke-width:10px;}</style></defs><g id="Calque_2" data-name="Calque 2"><g id="Layer_1" data-name="Layer 1"><path class="cls-1" d="M9.84,42.76V77.44q-.72.24-1.92.54a10.88,10.88,0,0,1-2.64.3Q0,78.28,0,73.84v-69A14.44,14.44,0,0,1,1.86,4.3,11.63,11.63,0,0,1,4.56,4Q9.84,4,9.84,8.44V38.32l33-34.2a7.11,7.11,0,0,1,4.68,1.56A4.44,4.44,0,0,1,49.08,9a5.26,5.26,0,0,1-.84,2.88,17.51,17.51,0,0,1-2.4,2.88L19.92,40.24q10.92,10.68,18.9,19t13.74,13.5a6.84,6.84,0,0,1-1.62,4.14,4.59,4.59,0,0,1-3.54,1.5,6.21,6.21,0,0,1-3.66-1.14,25.35,25.35,0,0,1-3.3-2.82Z"/><path class="cls-1" d="M231.09,38.76V73.44q-.72.24-1.92.54a10.88,10.88,0,0,1-2.64.3q-5.28,0-5.28-4.44V.84A14.44,14.44,0,0,1,223.11.3a11.63,11.63,0,0,1,2.7-.3q5.28,0,5.28,4.44V34.32l33-34.2a7.11,7.11,0,0,1,4.68,1.56A4.44,4.44,0,0,1,270.33,5a5.26,5.26,0,0,1-.84,2.88,17.51,17.51,0,0,1-2.4,2.88L241.17,36.24q10.92,10.68,18.9,19t13.74,13.5a6.84,6.84,0,0,1-1.62,4.14,4.59,4.59,0,0,1-3.54,1.5A6.21,6.21,0,0,1,265,73.26a25.35,25.35,0,0,1-3.3-2.82Z"/><path class="cls-1" d="M286.21,73.86a10.88,10.88,0,0,1-2.64.3q-5.28,0-5.28-4.44V.84A14.44,14.44,0,0,1,280.15.3a11.63,11.63,0,0,1,2.7-.3Q288,0,288,4.44V73.32A15,15,0,0,1,286.21,73.86Z"/><path class="cls-1" d="M342.29,54.12H310.13q-.84,2.4-1.8,5.22t-1.86,5.52q-.9,2.7-1.74,5t-1.32,3.9a10,10,0,0,1-4,.72,5.94,5.94,0,0,1-3.42-1,3.7,3.7,0,0,1-1.5-3.3,7.35,7.35,0,0,1,.36-2.22q.36-1.14.84-2.46l4.62-13q2.82-7.92,6.12-16.86t6.72-18q3.42-9.06,6.3-16.26a14.88,14.88,0,0,1,2.88-1,16.27,16.27,0,0,1,4-.48A14.88,14.88,0,0,1,331,.72a4,4,0,0,1,2.82,2.4q2.88,7,6.18,15.9t6.66,18.3Q350,46.68,353,55.74t5.46,16.38a7.52,7.52,0,0,1-2.28,1.74,6.62,6.62,0,0,1-3,.66,5.24,5.24,0,0,1-3.48-1,7.81,7.81,0,0,1-2-3.42Zm-16.08-46q-1.32,3.6-3,8.22T319.73,26q-1.8,5-3.6,10.2t-3.36,9.84h27q-1.8-5.4-3.72-10.86t-3.66-10.5q-1.74-5-3.24-9.3t-2.46-7.26Z"/><path class="cls-2" d="M179,6.15h0a32.49,32.49,0,0,1,32.49,32.49v2A32.49,32.49,0,0,1,179,73.15H146.48a0,0,0,0,1,0,0V38.65A32.49,32.49,0,0,1,179,6.15Z" transform="translate(80.46 -114.94) rotate(45)"/><path class="cls-2" d="M85.05,7.58h0a32.49,32.49,0,0,1,32.49,32.49v2A32.49,32.49,0,0,1,85.05,74.58H52.56a0,0,0,0,1,0,0V40.07A32.49,32.49,0,0,1,85.05,7.58Z" transform="translate(116.14 130.27) rotate(-135)"/></g></g></svg>