<svg id="Layer_1" data-name="Layer 1" xmlns="http://www.w3.org/2000/svg" viewBox="0 0 738.5 136.07"><defs><style>.cls-1{fill:#1d1d1b;}</style></defs><title>logo_guardvision</title><path class="cls-1" d="M282.48,341.4q-9.24,0-15.31-5.41-6.6-6.6-6.6-17.29v-49.1q0-10.69,6.6-17.29,6.07-5.41,15.31-5.41,9.5,0,15.31,5.41,6.6,6.34,6.6,17.29v8.18H289.88v-8.18q0-4.88-1.85-6.6t-5.54-1.58q-3.7,0-5.41,1.58-2,1.85-2,6.6v49.1q0,4.75,2,6.6,1.71,1.58,5.41,1.58t5.54-1.58q1.85-1.71,1.85-6.6V301.4h-7.26V286.88H304.4v31.81q0,11-6.6,17.29Q292,341.4,282.48,341.4Z" transform="translate(-43.73 -234.63)"/><path class="cls-1" d="M332.78,341.4q-9.5,0-15.31-5.41-6.6-6.34-6.6-17.29V247.94h14.52v70.75q0,4.89,1.85,6.6t5.54,1.58q3.69,0,5.41-1.58,2-1.85,2-6.6V247.94h14.52v70.75q0,10.69-6.6,17.29Q342,341.4,332.78,341.4Z" transform="translate(-43.73 -234.63)"/><path class="cls-1" d="M392.17,325.69H375.54l-2.64,14.65H358.12l18.48-92.4h14.52l18.48,92.4H394.81Zm-2.51-14.52L383.86,278l-5.81,33.13h11.62Z" transform="translate(-43.73 -234.63)"/><path class="cls-1" d="M457.78,340.34H443l-7.52-37.09h-6.6v37.09H414.35v-92.4h21.91q9.37,0,15.31,5.54,6.6,6.07,6.6,17.16v9.9q0,11.22-6.6,17.29a13.7,13.7,0,0,1-2.11,1.72Zm-14.12-69.7q0-4.62-2-6.6-1.72-1.58-5.41-1.58h-7.39v26.27h7.39q3.69,0,5.41-1.58,2-1.85,2-6.6v-9.9Z" transform="translate(-43.73 -234.63)"/><path class="cls-1" d="M486.29,340.34H464.38v-92.4h21.91q9.37,0,15.31,5.54,6.6,6.07,6.6,17.16v47.52a27.29,27.29,0,0,1-1.58,9.64,19.6,19.6,0,0,1-5.15,7.39Q495.79,340.34,486.29,340.34Zm-7.39-14.52h7.39q4,0,5.54-1.45,1.85-1.58,1.85-6.2V270.65q0-4.62-2-6.6-1.72-1.58-5.41-1.58H478.9v63.36Z" transform="translate(-43.73 -234.63)"/><path class="cls-1" d="M568.52,247.94h14.78l-18.48,92.4H550.31l-18.48-92.4h14.78l11,62.44Z" transform="translate(-43.73 -234.63)"/><path class="cls-1" d="M602.18,340.34H587.66v-92.4h14.52v92.4Z" transform="translate(-43.73 -234.63)"/><path class="cls-1" d="M630.16,341.4q-9.5,0-15.31-5.41-6.6-6.34-6.6-17.29v-12h14.52v12q0,4.75,2,6.6,1.71,1.58,5.41,1.58t5.41-1.58q2-1.71,2-6.6v-5.81a13.91,13.91,0,0,0-4.88-10.56,42.87,42.87,0,0,0-5.54-3.43,51.48,51.48,0,0,1-9.11-5.81,29.3,29.3,0,0,1-7.26-9.64,27.27,27.27,0,0,1-2.51-11.62v-2.24q0-11,6.6-17.29,5.81-5.41,15.31-5.41t15.31,5.41q6.6,6.34,6.6,17.29v8.05H637.56v-8.05q0-4.88-2-6.6-1.58-1.58-5.41-1.58T624.75,263q-2,1.85-2,6.6v2.24a13.5,13.5,0,0,0,4.88,10.43,41.17,41.17,0,0,0,5.15,3.17,53,53,0,0,1,9.5,6.07,27.56,27.56,0,0,1,9.77,21.38v5.81q0,11-6.6,17.29Q639.67,341.4,630.16,341.4Z" transform="translate(-43.73 -234.63)"/><path class="cls-1" d="M672.67,340.34H658.15v-92.4h14.52v92.4Z" transform="translate(-43.73 -234.63)"/><path class="cls-1" d="M701.57,341.4q-9.5,0-15.31-5.41-6.6-6.34-6.6-17.29v-49.1q0-11,6.6-17.29,5.81-5.41,15.31-5.41t15.31,5.41q6.6,6.34,6.6,17.29v49.1q0,11-6.6,17.29Q711.07,341.4,701.57,341.4Zm0-80q-3.7,0-5.41,1.58-2,1.85-2,6.6v49.1q0,4.75,2,6.6,1.71,1.58,5.41,1.58t5.41-1.58q2-1.71,2-6.6v-49.1q0-4.88-2-6.6Q705.4,261.4,701.57,261.41Z" transform="translate(-43.73 -234.63)"/><path class="cls-1" d="M775.1,340.34h-8.45l-22.18-46.86v46.86H730v-92.4h8.45l22.18,46.73V247.94H775.1v92.4Z" transform="translate(-43.73 -234.63)"/><path class="cls-1" d="M49.45,276.08l0.7-.53a14.2,14.2,0,0,1-2.2-2.35,2.23,2.23,0,0,1-.48-0.93c-1.15,1-2.07,1.74-2.73,2.33a2.84,2.84,0,0,0-.78,3.27,3.21,3.21,0,0,0,3,1.88,3.33,3.33,0,0,0,2.2-.82l-0.22.19,0.55-.44A1.59,1.59,0,0,1,49.45,276.08Z" transform="translate(-43.73 -234.63)"/><path class="cls-1" d="M215.2,315.54a3.33,3.33,0,0,1-.64-0.06A3,3,0,0,1,212,312a68.75,68.75,0,0,0,0-28.66,3,3,0,0,1,2.52-3.47,3.21,3.21,0,0,1,3.76,2.3,74.3,74.3,0,0,1,0,31,3.16,3.16,0,0,1-3.13,2.4h0Zm0,0" transform="translate(-43.73 -234.63)"/><path class="cls-1" d="M66.16,315.54A3.16,3.16,0,0,1,63,313.15a74.32,74.32,0,0,1,0-31,3.05,3.05,0,0,1,2.1-2.33,3.38,3.38,0,0,1,3.2.6,2.86,2.86,0,0,1,1,2.9,68.83,68.83,0,0,0,0,28.66,3,3,0,0,1-2.5,3.5,3.33,3.33,0,0,1-.64.06h0Zm0,0" transform="translate(-43.73 -234.63)"/><path class="cls-1" d="M139.87,342.38c-45.18,0-83.19-30.34-93.76-39.64a6.66,6.66,0,0,1,0-10.2c10.57-9.3,48.58-39.64,93.76-39.64s83.19,30.34,93.76,39.64a6.66,6.66,0,0,1,0,10.2c-10.57,9.3-48.58,39.64-93.76,39.64h0Zm0-83.51c-42.81,0-79.22,29.09-89.36,38a1,1,0,0,0,0,1.53c10.14,8.92,46.55,38,89.36,38s79.22-29.09,89.36-38a1,1,0,0,0,0-1.53c-10.14-8.92-46.55-38-89.36-38h0Zm0,0" transform="translate(-43.73 -234.63)"/><path class="cls-1" d="M123.92,238.88a3.29,3.29,0,0,0,3.61,2.57,113.81,113.81,0,0,1,12.34-.86v-6a120.67,120.67,0,0,0-13.2.92,3.17,3.17,0,0,0-2.15,1.12,2.74,2.74,0,0,0-.6,2.22h0Zm0,0" transform="translate(-43.73 -234.63)"/><path class="cls-1" d="M44.73,274.59l4.4,4.34a174.42,174.42,0,0,1,51.38-30.72c1-.38,1.92-0.76,2.91-1.05a3.05,3.05,0,0,0,2-2.3,2.87,2.87,0,0,0-1.12-2.8,3.39,3.39,0,0,0-3.16-.49c-1,.32-2,0.71-3.06,1.11a169.86,169.86,0,0,0-28.24,13.75,181.08,181.08,0,0,0-25.15,18.17h0Zm0,0" transform="translate(-43.73 -234.63)"/><path class="cls-1" d="M115.33,243.67a3.64,3.64,0,0,0,1.92-1.35l0.26-.5a2.21,2.21,0,0,0,.15-0.58,1.88,1.88,0,0,0,.06-0.56,4.41,4.41,0,0,0-.08-0.6A3.06,3.06,0,0,0,115,237.8a3.51,3.51,0,0,0-3.26,1.51,3,3,0,0,0-.29,2.28,3.28,3.28,0,0,0,1.51,1.81,3.48,3.48,0,0,0,2.39.28h0Zm0,0" transform="translate(-43.73 -234.63)"/><path class="cls-1" d="M232.8,279.75a3.33,3.33,0,0,1-2.2-.82c-7.28-6.4-45.87-38.33-90.73-38.33a3,3,0,1,1,0-6c47.3,0,87.54,33.29,95.14,40a2.84,2.84,0,0,1,.77,3.27,3.21,3.21,0,0,1-3,1.88h0Zm0,0" transform="translate(-43.73 -234.63)"/><path class="cls-1" d="M139.87,360.65c-47.3,0-87.54-33.29-95.13-40a2.84,2.84,0,0,1-.13-4.22,3.37,3.37,0,0,1,4.53-.12c7.28,6.41,45.87,38.34,90.73,38.34s83.46-31.93,90.73-38.33a3.37,3.37,0,0,1,4.53.12,2.84,2.84,0,0,1-.13,4.22c-7.59,6.67-47.84,40-95.14,40h0Zm0,0" transform="translate(-43.73 -234.63)"/><path class="cls-1" d="M175.12,336.46a3.2,3.2,0,0,1-3-2,2.86,2.86,0,0,1,1.12-3.33c11.3-7.89,18-20.27,18-33.42s-6.62-25.53-17.9-33.44a2.85,2.85,0,0,1-.64-4.18,3.36,3.36,0,0,1,4.49-.6c12.89,9,20.47,23.19,20.45,38.21s-7.61,29.16-20.52,38.18a3.37,3.37,0,0,1-1.92.6h0Zm0,0" transform="translate(-43.73 -234.63)"/><path class="cls-1" d="M104.62,336.58a3.33,3.33,0,0,1-1.92-.6c-12.9-9-20.51-23.17-20.56-38.2s7.47-29.2,20.31-38.31a3.41,3.41,0,0,1,3.18-.37,3,3,0,0,1,1.94,2.38,2.89,2.89,0,0,1-1.24,2.75c-11.24,8-17.82,20.38-17.78,33.54s6.7,25.53,18,33.44a2.86,2.86,0,0,1,1.12,3.33,3.19,3.19,0,0,1-3,2h0Zm0,0" transform="translate(-43.73 -234.63)"/><path class="cls-1" d="M139.87,324.48a4.65,4.65,0,0,1-2.74-.9l-8-5.81A26.56,26.56,0,0,1,118,296.45V281.07a3,3,0,0,1,1.6-2.58,46,46,0,0,1,40.55,0,3,3,0,0,1,1.6,2.58v15.38a26.55,26.55,0,0,1-11.11,21.35l-8,5.81a4.67,4.67,0,0,1-2.76.87h0ZM124.4,282.91v13.53A20.69,20.69,0,0,0,133,313.09l6.82,4.94,6.83-4.95a20.69,20.69,0,0,0,8.65-16.65V282.91a39.35,39.35,0,0,0-30.93,0h0Zm0,0" transform="translate(-43.73 -234.63)"/><path class="cls-1" d="M266.2,364.81a2.23,2.23,0,0,0-.91-1.91,12.08,12.08,0,0,0-3.27-1.41,23.57,23.57,0,0,1-3.73-1.46q-3.75-2-3.75-5.29a5,5,0,0,1,1-3.08,6.54,6.54,0,0,1,2.89-2.12,11.18,11.18,0,0,1,4.23-.76,10.17,10.17,0,0,1,4.2.83,6.65,6.65,0,0,1,2.87,2.34,6,6,0,0,1,1,3.43h-4.54a2.83,2.83,0,0,0-1-2.28,4,4,0,0,0-2.68-.81A4.28,4.28,0,0,0,260,353a2.13,2.13,0,0,0-.92,1.79,2,2,0,0,0,1.08,1.74,12.42,12.42,0,0,0,3.18,1.32,13.91,13.91,0,0,1,5.64,2.8,5.49,5.49,0,0,1,1.77,4.16,5.08,5.08,0,0,1-2.16,4.34,9.69,9.69,0,0,1-5.82,1.58,11.56,11.56,0,0,1-4.63-.9,7.28,7.28,0,0,1-3.18-2.47,6.18,6.18,0,0,1-1.1-3.63h4.55q0,3.53,4.35,3.53a4.34,4.34,0,0,0,2.52-.64A2.05,2.05,0,0,0,266.2,364.81Z" transform="translate(-43.73 -234.63)"/><path class="cls-1" d="M293.81,361.16H285.1v5.71h10.22v3.53H280.57V349.08H295.3v3.56H285.1v5.08h8.71v3.44Z" transform="translate(-43.73 -234.63)"/><path class="cls-1" d="M322,363.3a7.46,7.46,0,0,1-2.62,5.42,9.41,9.41,0,0,1-6.24,2,8.41,8.41,0,0,1-6.66-2.76,11.08,11.08,0,0,1-2.43-7.58v-1.3a12.44,12.44,0,0,1,1.12-5.42,8.21,8.21,0,0,1,3.2-3.6,10.26,10.26,0,0,1,11,.73,8,8,0,0,1,2.69,5.55h-4.54a4.39,4.39,0,0,0-1.19-3,4.49,4.49,0,0,0-3.11-.93,3.9,3.9,0,0,0-3.4,1.57,8.61,8.61,0,0,0-1.16,4.89v1.61a9.2,9.2,0,0,0,1.08,5.05,3.82,3.82,0,0,0,3.41,1.6,4.58,4.58,0,0,0,3.14-.93,4.14,4.14,0,0,0,1.19-2.88H322Z" transform="translate(-43.73 -234.63)"/><path class="cls-1" d="M348.42,349.08v14a7.08,7.08,0,0,1-2.26,5.54,8.89,8.89,0,0,1-6.18,2,9,9,0,0,1-6.12-2,7,7,0,0,1-2.31-5.43V349.08h4.54v14.08a4,4,0,0,0,1,3.05,4.06,4.06,0,0,0,2.87,1q3.83,0,3.89-3.9V349.08h4.55Z" transform="translate(-43.73 -234.63)"/><path class="cls-1" d="M367,362.6h-3.61v7.81h-4.54V349.08h8.18a9.46,9.46,0,0,1,6,1.68,5.74,5.74,0,0,1,2.12,4.76,6.4,6.4,0,0,1-1,3.64,6.61,6.61,0,0,1-3,2.32L376,370.2v0.21h-4.87ZM363.43,359h3.66a3.83,3.83,0,0,0,2.65-.84,3,3,0,0,0,.94-2.32,3.16,3.16,0,0,0-.88-2.37,3.75,3.75,0,0,0-2.71-.86h-3.64V359Z" transform="translate(-43.73 -234.63)"/><path class="cls-1" d="M390.23,370.41h-4.54V349.08h4.54v21.33Z" transform="translate(-43.73 -234.63)"/><path class="cls-1" d="M417.32,352.64h-6.74v17.77H406V352.64h-6.65v-3.56h17.93v3.56Z" transform="translate(-43.73 -234.63)"/><path class="cls-1" d="M434.49,358.69l4.58-9.61h5l-7.23,13.59v7.73h-4.61v-7.73L425,349.08h5Z" transform="translate(-43.73 -234.63)"/><path class="cls-1" d="M466.36,364.67a4.78,4.78,0,0,1,.85-2.74,11.71,11.71,0,0,1,3.14-2.8,14.86,14.86,0,0,1-1.54-2.4,5.16,5.16,0,0,1-.56-2.34,5.36,5.36,0,0,1,1.63-4.05,6.05,6.05,0,0,1,4.38-1.56,5.82,5.82,0,0,1,4,1.42,4.57,4.57,0,0,1,1.58,3.54,5.55,5.55,0,0,1-2.66,4.5l-1.69,1.19,3.8,4.28a7.94,7.94,0,0,0,.89-3.75h3.72a10.76,10.76,0,0,1-2,6.74l3.3,3.71h-5l-1.13-1.26a10.18,10.18,0,0,1-5.59,1.55,7.83,7.83,0,0,1-5.23-1.66A5.45,5.45,0,0,1,466.36,364.67Zm7.41,2.62a5.68,5.68,0,0,0,3-.85l-4.34-4.85-0.32.22a3.31,3.31,0,0,0-1.35,2.62,2.72,2.72,0,0,0,.84,2.07A3,3,0,0,0,473.77,367.29Zm-1.6-12.95a4.93,4.93,0,0,0,1.33,2.77l1.16-.75a3.91,3.91,0,0,0,1.23-1.08,2.27,2.27,0,0,0,.34-1.26,1.72,1.72,0,0,0-.56-1.27,2.2,2.2,0,0,0-2.94,0A2.14,2.14,0,0,0,472.17,354.34Z" transform="translate(-43.73 -234.63)"/><path class="cls-1" d="M513.62,370.41h-4.54V349.08h4.54v21.33Z" transform="translate(-43.73 -234.63)"/><path class="cls-1" d="M540.71,352.64H534v17.77h-4.54V352.64h-6.65v-3.56h17.93v3.56Z" transform="translate(-43.73 -234.63)"/><path class="cls-1" d="M575,364.81a2.23,2.23,0,0,0-.91-1.91,12.11,12.11,0,0,0-3.27-1.41,23.64,23.64,0,0,1-3.74-1.46q-3.75-2-3.75-5.29a5,5,0,0,1,1-3.08,6.54,6.54,0,0,1,2.89-2.12,11.18,11.18,0,0,1,4.23-.76,10.17,10.17,0,0,1,4.2.83,6.64,6.64,0,0,1,2.87,2.34,6,6,0,0,1,1,3.43H575a2.83,2.83,0,0,0-1-2.28,4,4,0,0,0-2.68-.81,4.28,4.28,0,0,0-2.59.68,2.13,2.13,0,0,0-.92,1.79,2,2,0,0,0,1.08,1.74,12.41,12.41,0,0,0,3.18,1.32,13.91,13.91,0,0,1,5.64,2.8,5.49,5.49,0,0,1,1.77,4.16,5.08,5.08,0,0,1-2.16,4.34,9.69,9.69,0,0,1-5.82,1.58,11.55,11.55,0,0,1-4.63-.9,7.28,7.28,0,0,1-3.18-2.47,6.18,6.18,0,0,1-1.1-3.63h4.55q0,3.53,4.36,3.53a4.34,4.34,0,0,0,2.53-.64A2.05,2.05,0,0,0,575,364.81Z" transform="translate(-43.73 -234.63)"/><path class="cls-1" d="M607.47,360.23a12.54,12.54,0,0,1-1.15,5.52,8.48,8.48,0,0,1-3.29,3.66,10,10,0,0,1-9.79,0,8.56,8.56,0,0,1-3.33-3.64,12.17,12.17,0,0,1-1.19-5.44v-1.05a12.47,12.47,0,0,1,1.17-5.54,8.54,8.54,0,0,1,3.31-3.68,10,10,0,0,1,9.78,0,8.54,8.54,0,0,1,3.31,3.68,12.43,12.43,0,0,1,1.17,5.53v1Zm-4.6-1a8.75,8.75,0,0,0-1.24-5.1,4.46,4.46,0,0,0-7.06,0,8.66,8.66,0,0,0-1.25,5v1a8.86,8.86,0,0,0,1.24,5.07,4.42,4.42,0,0,0,7.08.07,8.8,8.8,0,0,0,1.24-5.06v-1Z" transform="translate(-43.73 -234.63)"/><path class="cls-1" d="M622.06,366.88h9.63v3.53H617.52V349.08h4.54v17.8Z" transform="translate(-43.73 -234.63)"/><path class="cls-1" d="M657.34,349.08v14a7.08,7.08,0,0,1-2.26,5.54,8.89,8.89,0,0,1-6.18,2,9,9,0,0,1-6.12-2,7,7,0,0,1-2.31-5.43V349.08H645v14.08a4,4,0,0,0,1,3.05,4.06,4.06,0,0,0,2.87,1q3.82,0,3.89-3.9V349.08h4.55Z" transform="translate(-43.73 -234.63)"/><path class="cls-1" d="M684.39,352.64h-6.74v17.77h-4.54V352.64h-6.65v-3.56h17.93v3.56Z" transform="translate(-43.73 -234.63)"/><path class="cls-1" d="M698.55,370.41H694V349.08h4.54v21.33Z" transform="translate(-43.73 -234.63)"/><path class="cls-1" d="M727.59,360.23a12.54,12.54,0,0,1-1.15,5.52,8.48,8.48,0,0,1-3.29,3.66,10,10,0,0,1-9.79,0,8.56,8.56,0,0,1-3.33-3.64,12.17,12.17,0,0,1-1.19-5.44v-1.05a12.47,12.47,0,0,1,1.17-5.54,8.54,8.54,0,0,1,3.31-3.68,10,10,0,0,1,9.78,0,8.54,8.54,0,0,1,3.31,3.68,12.43,12.43,0,0,1,1.17,5.53v1Zm-4.6-1a8.75,8.75,0,0,0-1.24-5.1,4.46,4.46,0,0,0-7.06,0,8.66,8.66,0,0,0-1.25,5v1a8.86,8.86,0,0,0,1.24,5.07,4.42,4.42,0,0,0,7.08.07A8.8,8.8,0,0,0,723,360.3v-1Z" transform="translate(-43.73 -234.63)"/><path class="cls-1" d="M755.54,370.41H751l-8.83-14v14h-4.54V349.08h4.54L751,363.14V349.08h4.52v21.33Z" transform="translate(-43.73 -234.63)"/><path class="cls-1" d="M777.67,364.81a2.23,2.23,0,0,0-.91-1.91,12.11,12.11,0,0,0-3.27-1.41,23.64,23.64,0,0,1-3.74-1.46q-3.75-2-3.75-5.29a5,5,0,0,1,1-3.08,6.54,6.54,0,0,1,2.89-2.12,11.18,11.18,0,0,1,4.23-.76,10.17,10.17,0,0,1,4.2.83A6.64,6.64,0,0,1,781.2,352a6,6,0,0,1,1,3.43h-4.54a2.83,2.83,0,0,0-1-2.28,4,4,0,0,0-2.68-.81,4.28,4.28,0,0,0-2.59.68,2.13,2.13,0,0,0-.92,1.79,2,2,0,0,0,1.08,1.74,12.41,12.41,0,0,0,3.18,1.32,13.91,13.91,0,0,1,5.64,2.8,5.49,5.49,0,0,1,1.77,4.16,5.08,5.08,0,0,1-2.16,4.34,9.69,9.69,0,0,1-5.82,1.58,11.55,11.55,0,0,1-4.63-.9,7.28,7.28,0,0,1-3.18-2.47,6.18,6.18,0,0,1-1.1-3.63h4.55q0,3.53,4.36,3.53a4.34,4.34,0,0,0,2.53-.64A2.05,2.05,0,0,0,777.67,364.81Z" transform="translate(-43.73 -234.63)"/></svg>