<svg id="Layer_1" data-name="Layer 1" xmlns="http://www.w3.org/2000/svg" viewBox="0 0 746.35 150.39"><defs><style>.cls-1{font-size:132px;font-family:Bison;}.cls-1,.cls-3,.cls-4{fill:#1d1d1b;}.cls-1,.cls-4{font-weight:700;}.cls-2{letter-spacing:-2px;}.cls-4{font-size:30px;font-family:Roboto;letter-spacing:5.81px;}.cls-5{letter-spacing:4.84px;}.cls-6{white-space:pre;}</style></defs><title>logo_guardvision</title><text class="cls-1" transform="translate(212.75 112.2)"><tspan class="cls-2">g</tspan><tspan class="cls-2" x="49.76" y="0">u</tspan><tspan class="cls-2" x="99.92" y="0">ard</tspan><tspan x="253.44" y="0"> </tspan><tspan class="cls-2" x="273.9" y="0">vision</tspan></text><path class="cls-3" d="M49.45,276.08l0.7-.53a14.2,14.2,0,0,1-2.2-2.35,2.23,2.23,0,0,1-.48-0.93c-1.15,1-2.07,1.74-2.73,2.33a2.84,2.84,0,0,0-.78,3.27,3.21,3.21,0,0,0,3,1.88,3.33,3.33,0,0,0,2.2-.82l-0.22.19,0.55-.44A1.59,1.59,0,0,1,49.45,276.08Z" transform="translate(-43.73 -228.14)"/><path class="cls-3" d="M215.2,315.54a3.33,3.33,0,0,1-.64-0.06A3,3,0,0,1,212,312a68.75,68.75,0,0,0,0-28.66,3,3,0,0,1,2.52-3.47,3.21,3.21,0,0,1,3.76,2.3,74.3,74.3,0,0,1,0,31,3.16,3.16,0,0,1-3.13,2.4h0Zm0,0" transform="translate(-43.73 -228.14)"/><path class="cls-3" d="M66.16,315.54A3.16,3.16,0,0,1,63,313.15a74.32,74.32,0,0,1,0-31,3.05,3.05,0,0,1,2.1-2.33,3.38,3.38,0,0,1,3.2.6,2.86,2.86,0,0,1,1,2.9,68.83,68.83,0,0,0,0,28.66,3,3,0,0,1-2.5,3.5,3.33,3.33,0,0,1-.64.06h0Zm0,0" transform="translate(-43.73 -228.14)"/><path class="cls-3" d="M139.87,342.38c-45.18,0-83.19-30.34-93.76-39.64a6.66,6.66,0,0,1,0-10.2c10.57-9.3,48.58-39.64,93.76-39.64s83.19,30.34,93.76,39.64a6.66,6.66,0,0,1,0,10.2c-10.57,9.3-48.58,39.64-93.76,39.64h0Zm0-83.51c-42.81,0-79.22,29.09-89.36,38a1,1,0,0,0,0,1.53c10.14,8.92,46.55,38,89.36,38s79.22-29.09,89.36-38a1,1,0,0,0,0-1.53c-10.14-8.92-46.55-38-89.36-38h0Zm0,0" transform="translate(-43.73 -228.14)"/><path class="cls-3" d="M123.92,238.88a3.29,3.29,0,0,0,3.61,2.57,113.81,113.81,0,0,1,12.34-.86v-6a120.67,120.67,0,0,0-13.2.92,3.17,3.17,0,0,0-2.15,1.12,2.74,2.74,0,0,0-.6,2.22h0Zm0,0" transform="translate(-43.73 -228.14)"/><path class="cls-3" d="M44.73,274.59l4.4,4.34a174.42,174.42,0,0,1,51.38-30.72c1-.38,1.92-0.76,2.91-1.05a3.05,3.05,0,0,0,2-2.3,2.87,2.87,0,0,0-1.12-2.8,3.39,3.39,0,0,0-3.16-.49c-1,.32-2,0.71-3.06,1.11a169.86,169.86,0,0,0-28.24,13.75,181.08,181.08,0,0,0-25.15,18.17h0Zm0,0" transform="translate(-43.73 -228.14)"/><path class="cls-3" d="M115.33,243.67a3.64,3.64,0,0,0,1.92-1.35l0.26-.5a2.21,2.21,0,0,0,.15-0.58,1.88,1.88,0,0,0,.06-0.56,4.41,4.41,0,0,0-.08-0.6A3.06,3.06,0,0,0,115,237.8a3.51,3.51,0,0,0-3.26,1.51,3,3,0,0,0-.29,2.28,3.28,3.28,0,0,0,1.51,1.81,3.48,3.48,0,0,0,2.39.28h0Zm0,0" transform="translate(-43.73 -228.14)"/><path class="cls-3" d="M232.8,279.75a3.33,3.33,0,0,1-2.2-.82c-7.28-6.4-45.87-38.33-90.73-38.33a3,3,0,1,1,0-6c47.3,0,87.54,33.29,95.14,40a2.84,2.84,0,0,1,.77,3.27,3.21,3.21,0,0,1-3,1.88h0Zm0,0" transform="translate(-43.73 -228.14)"/><path class="cls-3" d="M139.87,360.65c-47.3,0-87.54-33.29-95.13-40a2.84,2.84,0,0,1-.13-4.22,3.37,3.37,0,0,1,4.53-.12c7.28,6.41,45.87,38.34,90.73,38.34s83.46-31.93,90.73-38.33a3.37,3.37,0,0,1,4.53.12,2.84,2.84,0,0,1-.13,4.22c-7.59,6.67-47.84,40-95.14,40h0Zm0,0" transform="translate(-43.73 -228.14)"/><path class="cls-3" d="M175.12,336.46a3.2,3.2,0,0,1-3-2,2.86,2.86,0,0,1,1.12-3.33c11.3-7.89,18-20.27,18-33.42s-6.62-25.53-17.9-33.44a2.85,2.85,0,0,1-.64-4.18,3.36,3.36,0,0,1,4.49-.6c12.89,9,20.47,23.19,20.45,38.21s-7.61,29.16-20.52,38.18a3.37,3.37,0,0,1-1.92.6h0Zm0,0" transform="translate(-43.73 -228.14)"/><path class="cls-3" d="M104.62,336.58a3.33,3.33,0,0,1-1.92-.6c-12.9-9-20.51-23.17-20.56-38.2s7.47-29.2,20.31-38.31a3.41,3.41,0,0,1,3.18-.37,3,3,0,0,1,1.94,2.38,2.89,2.89,0,0,1-1.24,2.75c-11.24,8-17.82,20.38-17.78,33.54s6.7,25.53,18,33.44a2.86,2.86,0,0,1,1.12,3.33,3.19,3.19,0,0,1-3,2h0Zm0,0" transform="translate(-43.73 -228.14)"/><path class="cls-3" d="M139.87,324.48a4.65,4.65,0,0,1-2.74-.9l-8-5.81A26.56,26.56,0,0,1,118,296.45V281.07a3,3,0,0,1,1.6-2.58,46,46,0,0,1,40.55,0,3,3,0,0,1,1.6,2.58v15.38a26.55,26.55,0,0,1-11.11,21.35l-8,5.81a4.67,4.67,0,0,1-2.76.87h0ZM124.4,282.91v13.53A20.69,20.69,0,0,0,133,313.09l6.82,4.94,6.83-4.95a20.69,20.69,0,0,0,8.65-16.65V282.91a39.35,39.35,0,0,0-30.93,0h0Zm0,0" transform="translate(-43.73 -228.14)"/><text class="cls-4" transform="translate(209.09 142.26) scale(1.03 1)">SECUR<tspan x="126.54" y="0">I</tspan><tspan x="141.4" y="0">T</tspan><tspan x="166.73" y="0">Y &amp; </tspan><tspan x="246.07" y="0">I</tspan><tspan class="cls-5" x="260.93" y="0">T</tspan><tspan class="cls-6" x="285.15" y="0"> SO</tspan><tspan x="351.39" y="0">L</tspan><tspan x="373.83" y="0">UTIONS</tspan></text></svg>